<svg xmlns="http://www.w3.org/2000/svg" width="14" height="13" viewBox="0 0 14 13" fill="none">
<path d="M13.75 6.5625L8.25 11.8125C7.9375 12.0938 7.46875 12.0938 7.1875 11.7813C6.90625 11.4688 6.90625 11 7.21875 10.7188L11.375 6.75H0.75C0.3125 6.75 0 6.4375 0 6C0 5.59375 0.3125 5.25 0.75 5.25H11.375L7.21875 1.3125C6.90625 1.03125 6.90625 0.531252 7.1875 0.250002C7.46875 -0.0624983 7.96875 -0.0624983 8.25 0.218752L13.75 5.46875C13.9062 5.625 14 5.8125 14 6C14 6.21875 13.9062 6.40625 13.75 6.5625Z" fill="black"/>
</svg>