<svg xmlns="http://www.w3.org/2000/svg" width="20" height="17" viewBox="0 0 20 17" fill="none">
  <path d="M12.6562 0.0312537C12.9062 0.125004 13.0625 0.406254 12.9688 0.656254L7.96875 15.6563C7.875 15.9375 7.59375 16.0625 7.34375 16C7.0625 15.9063 6.9375 15.625 7 15.3438L12 0.343754C12.0938 0.0937537 12.375 -0.0624963 12.6562 0.0312537ZM5.375 3.6875H5.34375C5.53125 3.875 5.53125 4.21875 5.3125 4.375L1.25 8L5.3125 11.6563C5.53125 11.8125 5.53125 12.1563 5.375 12.3438C5.1875 12.5625 4.875 12.5625 4.65625 12.375L0.15625 8.375C0.0625 8.28125 0 8.15625 0 8C0 7.875 0.0625 7.75 0.15625 7.65625L4.65625 3.65625C4.875 3.46875 5.1875 3.46875 5.375 3.6875ZM14.625 3.6875C14.8125 3.46875 15.125 3.4375 15.3125 3.625L19.8125 7.625C19.9375 7.71875 20 7.875 20 8C20 8.15625 19.9375 8.28125 19.8125 8.375L15.3125 12.375C15.125 12.5625 14.8125 12.5625 14.625 12.3438C14.4375 12.125 14.4375 11.8125 14.6562 11.625L18.7188 8L14.6562 4.375C14.4375 4.21875 14.4375 3.875 14.625 3.6875Z" fill="#F3F4F6"/>
</svg>