<svg xmlns="http://www.w3.org/2000/svg" width="18" height="14" viewBox="0 0 18 14" fill="none">
  <path d="M3.65625 3.25C2.3125 4.5 1.40625 6 1 7C1.40625 8 2.3125 9.5 3.65625 10.75C5 12 6.78125 13 9 13C11.1875 13 12.9688 12 14.3125 10.75C15.6562 9.5 16.5625 8 17 7C16.5625 6 15.6562 4.5 14.3125 3.25C12.9688 2 11.1875 1 9 1C6.78125 1 5 2 3.65625 3.25ZM9 0C11.5 0 13.5312 1.15625 15 2.53125C16.4688 3.875 17.4375 5.5 17.9062 6.625C18 6.875 18 7.15625 17.9062 7.40625C17.4375 8.5 16.4688 10.125 15 11.5C13.5312 12.875 11.5 14 9 14C6.46875 14 4.4375 12.875 2.96875 11.5C1.5 10.125 0.53125 8.5 0.0625 7.40625C-0.03125 7.15625 -0.03125 6.875 0.0625 6.625C0.53125 5.5 1.5 3.875 2.96875 2.53125C4.4375 1.15625 6.46875 0 9 0ZM6 7C6 8.09375 6.5625 9.0625 7.5 9.625C8.40625 10.1562 9.5625 10.1562 10.5 9.625C11.4062 9.0625 12 8.09375 12 7C12 5.9375 11.4062 4.96875 10.5 4.40625C9.5625 3.875 8.40625 3.875 7.5 4.40625C6.5625 4.96875 6 5.9375 6 7ZM13 7C13 8.4375 12.2188 9.75 11 10.4688C9.75 11.1875 8.21875 11.1875 7 10.4688C5.75 9.75 5 8.4375 5 7C5 5.59375 5.75 4.28125 7 3.5625C8.21875 2.84375 9.75 2.84375 11 3.5625C12.2188 4.28125 13 5.59375 13 7Z" fill="#ffffff"/>
</svg>